<svg width="161" height="21" viewBox="0 0 161 21" fill="none" xmlns="http://www.w3.org/2000/svg">
<g clip-path="url(#clip0_4386_8006)">
<path d="M153.449 0H139.445L150.904 3.82935L153.449 0Z" fill="#5BC7D6"/>
<path d="M160.442 6.99861L153.445 0L155.159 5.23563L160.442 6.99861Z" fill="#42C3D3"/>
<path d="M139.445 0L139.474 20.9999L147.823 8.40899L139.445 0Z" fill="#00BCCE"/>
<path d="M156.625 9.66907L160.424 20.989L160.441 7L156.625 9.66907Z" fill="#00B5C9"/>
<path d="M139.469 20.9989L160.423 20.9866L152.079 12.6719L139.469 20.9989Z" fill="#00A2B5"/>
<path d="M156.624 9.66642L160.439 6.99735L155.156 5.23438L156.624 9.66642Z" fill="#71CCDA"/>
<path d="M150.902 3.82812L147.82 8.40777L152.083 12.6717L156.628 9.66645L155.161 5.23441L150.902 3.82812Z" fill="white"/>
<path d="M150.904 3.82935L139.445 0L147.822 8.40899L150.904 3.82935Z" fill="#8ED5E0"/>
<path d="M152.086 12.6771L160.431 20.9918L156.631 9.67188L152.086 12.6771Z" fill="#61C8D7"/>
<path d="M155.165 5.23563L153.451 0L150.906 3.82935L155.165 5.23563Z" fill="#9AD9E3"/>
<path d="M147.817 8.40625L139.469 20.9972L152.079 12.6702L147.817 8.40625Z" fill="#69CAD9"/>
<path d="M37.9746 6.60938V17.4668L31.8429 7.33801C31.5389 6.83813 31.3522 6.60938 30.8571 6.60938H26.9922V7.27023C27.1659 7.2787 27.2962 7.30412 27.2962 7.30412C27.9953 7.41426 28.4339 7.84212 28.4339 8.42248V20.9787H30.1579V9.80349L36.6849 20.4195C36.6849 20.4195 36.6936 20.4322 36.6979 20.4407V20.4491H36.7066C36.9411 20.8304 37.2233 20.9871 37.7271 20.9871H39.6639V6.60938H37.9833H37.9746Z" fill="#00B5C9"/>
<path d="M83.5058 8.61669C83.5232 8.3837 83.5666 8.23543 83.6404 8.13376C83.7837 7.89653 84.0399 7.80757 84.6696 7.80757H85.6641C87.7963 7.81604 88.7473 8.676 88.7473 10.5992C88.7473 12.7809 86.8105 13.2427 85.2906 13.2427H84.9692C84.7912 13.2427 84.7217 13.3697 84.8129 13.5222L88.8211 20.3595C89.0817 20.8086 89.3509 20.9865 89.7895 20.9865H92.1215L88.0481 14.0306C90.2846 13.6239 91.5005 12.4632 91.5005 10.4891C91.5005 6.61719 86.6281 6.61719 85.0691 6.61719H79.1719V7.29075C79.3673 7.30769 79.5019 7.32887 79.5019 7.32887C80.2662 7.44749 80.7396 7.90924 80.7396 8.54044V20.9823H82.6937C83.2452 20.9823 83.4884 20.7789 83.4884 20.3214L83.5058 8.61669Z" fill="#00B5C9"/>
<path d="M19.4619 19.741V14.1238H24.8862V12.8995H19.4619V8.84968C19.4619 7.93466 19.6008 7.86264 20.6952 7.86264H25.6419V6.61719H15.1406V7.29075C15.3361 7.30769 15.4707 7.32887 15.4707 7.32887C16.235 7.44749 16.7084 7.90924 16.7084 8.54044V20.4443C16.7084 20.8213 16.9039 20.9823 17.3555 20.9823H25.9719V19.7368H19.4575L19.4619 19.741Z" fill="#00B5C9"/>
<path d="M96.8334 19.741V14.1238H102.253V12.8995H96.8334V8.84968C96.8334 7.93466 96.9724 7.86264 98.0668 7.86264H103.013V6.61719H92.4688V7.29075C92.6642 7.30769 92.7988 7.32887 92.7988 7.32887C93.5632 7.44749 94.0366 7.90924 94.0366 8.54044V20.4443C94.0366 20.8213 94.232 20.9823 94.6837 20.9823H103.343V19.7368H96.8334V19.741Z" fill="#00B5C9"/>
<path d="M108.701 19.741V14.1238H114.121V12.8995H108.701V8.84968C108.701 7.93466 108.844 7.86264 109.934 7.86264H114.881V6.61719H104.336V7.29075C104.531 7.30769 104.666 7.32887 104.666 7.32887C105.43 7.44749 105.904 7.90924 105.904 8.54044V20.4443C105.904 20.8213 106.099 20.9823 106.551 20.9823H115.211V19.7368H108.696L108.701 19.741Z" fill="#00B5C9"/>
<path d="M127.21 7.93466C126.055 7.02387 124.439 6.61719 121.968 6.61719H116.219V7.29075C116.419 7.30769 116.549 7.32887 116.549 7.32887C117.313 7.44749 117.791 7.90924 117.791 8.54044V20.4443C117.791 20.8213 117.986 20.9823 118.438 20.9823H121.234C125.655 20.9823 129.438 20.44 129.438 13.7722C129.438 10.9593 128.626 9.04878 127.219 7.93466H127.21ZM125.755 18.3854C125.043 19.3555 123.853 19.7919 121.89 19.7919H120.631V8.85392C120.631 7.96007 120.909 7.80757 122.181 7.80757C126.359 7.80757 126.68 10.2942 126.68 13.8103C126.68 16.1318 126.402 17.5001 125.755 18.3854Z" fill="#00B5C9"/>
<path d="M59.493 7.02199C59.3627 6.68733 59.1673 6.53906 58.8329 6.53906H55.2285V7.19144C55.3632 7.21262 55.5282 7.25075 55.5282 7.25075C55.8409 7.32277 56.3012 7.58118 56.3012 7.90313C56.3012 8.41571 55.9755 9.25449 55.9147 9.41546L51.5156 20.9846H53.1007L54.7595 16.5916H60.3181L61.7424 20.3492C61.9075 20.794 62.1984 20.9846 62.7152 20.9846H64.8778L59.493 7.01776V7.02199ZM55.2155 15.397L57.5649 9.44935L59.8534 15.397H55.2112H55.2155Z" fill="#00B5C9"/>
<path d="M74.6304 12.1253L74.2482 12.0363L74.6174 11.9007C76.5976 11.1806 77.6876 9.96478 77.6876 8.18133C77.6876 5.47014 75.5423 4.14844 71.3821 4.14844H64.5469V4.89401C64.777 4.91096 64.9855 4.94909 64.9855 4.94909C65.7845 5.08041 66.3708 5.56334 66.3708 6.25384V20.3266C66.3708 20.7841 66.6053 20.979 67.1568 20.979H71.0087C73.041 20.979 78.5648 20.979 78.5648 16.5182C78.5648 14.1036 77.2273 12.7056 74.626 12.121L74.6304 12.1253ZM71.4733 19.8056H69.3802V6.56309C69.3802 5.2668 69.454 5.22444 70.9869 5.22444C73.5925 5.22444 74.752 6.16912 74.752 8.28724C74.752 10.4054 73.4318 11.5068 70.709 11.5068H70.7003C70.7003 11.5068 70.5918 11.4983 70.5179 11.5661C70.4745 11.6084 70.4832 11.6762 70.4832 11.6762V12.6802H71.3604C74.118 12.6802 75.6379 13.8706 75.6379 16.0311C75.6379 18.6067 74.3177 19.8056 71.4777 19.8056H71.4733Z" fill="#00B5C9"/>
<path d="M8.80047 4H0.445312V4.74134C0.67547 4.75405 0.827461 4.7837 0.827461 4.7837C1.71769 4.91079 2.2692 5.42337 2.2692 6.12235V21H4.70974C5.2656 21 5.50444 20.8051 5.50444 20.3391V6.71119C5.49141 5.6606 5.50444 5.19038 6.98961 5.19038H7.55849C9.87309 5.19885 11.3105 5.76227 11.3105 8.54971C11.3105 11.8201 9.06537 12.1971 7.37176 12.1971H6.77682C6.77682 12.1971 6.68997 12.1971 6.62917 12.2479C6.5814 12.2903 6.58575 12.3411 6.58575 12.3411V13.3833H6.82893C10.1988 13.3833 14.2374 13.3833 14.2374 8.63444C14.2374 5.73262 12.1226 4 8.79613 4H8.80047Z" fill="#00B5C9"/>
<path d="M53.1558 6.60156H41.04L40.9531 9.40595H41.8043C41.9997 8.16473 42.5599 7.79194 44.032 7.79194H45.6518V20.9878H47.7406C48.2791 20.9878 48.5179 20.7845 48.5179 20.327V7.79194H50.116C51.6489 7.79194 52.2743 8.21133 52.3915 9.40595H53.2166L53.1471 6.60156H53.1558Z" fill="#00B5C9"/>
<path d="M37.9746 6.60938V17.4668L31.8429 7.33801C31.5389 6.83813 31.3522 6.60938 30.8571 6.60938H26.9922V7.27023C27.1659 7.2787 27.2962 7.30412 27.2962 7.30412C27.9953 7.41426 28.4339 7.84212 28.4339 8.42248V20.9787H30.1579V9.80349L36.6849 20.4195C36.6849 20.4195 36.6936 20.4322 36.6979 20.4407V20.4491H36.7066C36.9411 20.8304 37.2233 20.9871 37.7271 20.9871H39.6639V6.60938H37.9833H37.9746Z" fill="white"/>
<path d="M83.5058 8.61669C83.5232 8.3837 83.5666 8.23543 83.6404 8.13376C83.7837 7.89653 84.0399 7.80757 84.6696 7.80757H85.6641C87.7963 7.81604 88.7473 8.676 88.7473 10.5992C88.7473 12.7809 86.8105 13.2427 85.2906 13.2427H84.9692C84.7912 13.2427 84.7217 13.3697 84.8129 13.5222L88.8211 20.3595C89.0817 20.8086 89.3509 20.9865 89.7895 20.9865H92.1215L88.0481 14.0306C90.2846 13.6239 91.5005 12.4632 91.5005 10.4891C91.5005 6.61719 86.6281 6.61719 85.0691 6.61719H79.1719V7.29075C79.3673 7.30769 79.5019 7.32887 79.5019 7.32887C80.2662 7.44749 80.7396 7.90924 80.7396 8.54044V20.9823H82.6937C83.2452 20.9823 83.4884 20.7789 83.4884 20.3214L83.5058 8.61669Z" fill="white"/>
<path d="M19.4619 19.741V14.1238H24.8862V12.8995H19.4619V8.84968C19.4619 7.93466 19.6008 7.86264 20.6952 7.86264H25.6419V6.61719H15.1406V7.29075C15.3361 7.30769 15.4707 7.32887 15.4707 7.32887C16.235 7.44749 16.7084 7.90924 16.7084 8.54044V20.4443C16.7084 20.8213 16.9039 20.9823 17.3555 20.9823H25.9719V19.7368H19.4575L19.4619 19.741Z" fill="white"/>
<path d="M96.8334 19.741V14.1238H102.253V12.8995H96.8334V8.84968C96.8334 7.93466 96.9724 7.86264 98.0668 7.86264H103.013V6.61719H92.4688V7.29075C92.6642 7.30769 92.7988 7.32887 92.7988 7.32887C93.5632 7.44749 94.0366 7.90924 94.0366 8.54044V20.4443C94.0366 20.8213 94.232 20.9823 94.6837 20.9823H103.343V19.7368H96.8334V19.741Z" fill="white"/>
<path d="M108.701 19.741V14.1238H114.121V12.8995H108.701V8.84968C108.701 7.93466 108.844 7.86264 109.934 7.86264H114.881V6.61719H104.336V7.29075C104.531 7.30769 104.666 7.32887 104.666 7.32887C105.43 7.44749 105.904 7.90924 105.904 8.54044V20.4443C105.904 20.8213 106.099 20.9823 106.551 20.9823H115.211V19.7368H108.696L108.701 19.741Z" fill="white"/>
<path d="M127.21 7.93466C126.055 7.02387 124.439 6.61719 121.968 6.61719H116.219V7.29075C116.419 7.30769 116.549 7.32887 116.549 7.32887C117.313 7.44749 117.791 7.90924 117.791 8.54044V20.4443C117.791 20.8213 117.986 20.9823 118.438 20.9823H121.234C125.655 20.9823 129.438 20.44 129.438 13.7722C129.438 10.9593 128.626 9.04878 127.219 7.93466H127.21ZM125.755 18.3854C125.043 19.3555 123.853 19.7919 121.89 19.7919H120.631V8.85392C120.631 7.96007 120.909 7.80757 122.181 7.80757C126.359 7.80757 126.68 10.2942 126.68 13.8103C126.68 16.1318 126.402 17.5001 125.755 18.3854Z" fill="white"/>
<path d="M59.493 7.02199C59.3627 6.68733 59.1673 6.53906 58.8329 6.53906H55.2285V7.19144C55.3632 7.21262 55.5282 7.25075 55.5282 7.25075C55.8409 7.32277 56.3012 7.58118 56.3012 7.90313C56.3012 8.41571 55.9755 9.25449 55.9147 9.41546L51.5156 20.9846H53.1007L54.7595 16.5916H60.3181L61.7424 20.3492C61.9075 20.794 62.1984 20.9846 62.7152 20.9846H64.8778L59.493 7.01776V7.02199ZM55.2155 15.397L57.5649 9.44935L59.8534 15.397H55.2112H55.2155Z" fill="white"/>
<path d="M74.6304 12.1253L74.2482 12.0363L74.6174 11.9007C76.5976 11.1806 77.6876 9.96478 77.6876 8.18133C77.6876 5.47014 75.5423 4.14844 71.3821 4.14844H64.5469V4.89401C64.777 4.91096 64.9855 4.94909 64.9855 4.94909C65.7845 5.08041 66.3708 5.56334 66.3708 6.25384V20.3266C66.3708 20.7841 66.6053 20.979 67.1568 20.979H71.0087C73.041 20.979 78.5648 20.979 78.5648 16.5182C78.5648 14.1036 77.2273 12.7056 74.626 12.121L74.6304 12.1253ZM71.4733 19.8056H69.3802V6.56309C69.3802 5.2668 69.454 5.22444 70.9869 5.22444C73.5925 5.22444 74.752 6.16912 74.752 8.28724C74.752 10.4054 73.4318 11.5068 70.709 11.5068H70.7003C70.7003 11.5068 70.5918 11.4983 70.5179 11.5661C70.4745 11.6084 70.4832 11.6762 70.4832 11.6762V12.6802H71.3604C74.118 12.6802 75.6379 13.8706 75.6379 16.0311C75.6379 18.6067 74.3177 19.8056 71.4777 19.8056H71.4733Z" fill="white"/>
<path d="M8.80047 4H0.445312V4.74134C0.67547 4.75405 0.827461 4.7837 0.827461 4.7837C1.71769 4.91079 2.2692 5.42337 2.2692 6.12235V21H4.70974C5.2656 21 5.50444 20.8051 5.50444 20.3391V6.71119C5.49141 5.6606 5.50444 5.19038 6.98961 5.19038H7.55849C9.87309 5.19885 11.3105 5.76227 11.3105 8.54971C11.3105 11.8201 9.06537 12.1971 7.37176 12.1971H6.77682C6.77682 12.1971 6.68997 12.1971 6.62917 12.2479C6.5814 12.2903 6.58575 12.3411 6.58575 12.3411V13.3833H6.82893C10.1988 13.3833 14.2374 13.3833 14.2374 8.63444C14.2374 5.73262 12.1226 4 8.79613 4H8.80047Z" fill="white"/>
<path d="M53.1558 6.60156H41.04L40.9531 9.40595H41.8043C41.9997 8.16473 42.5599 7.79194 44.032 7.79194H45.6518V20.9878H47.7406C48.2791 20.9878 48.5179 20.7845 48.5179 20.327V7.79194H50.116C51.6489 7.79194 52.2743 8.21133 52.3915 9.40595H53.2166L53.1471 6.60156H53.1558Z" fill="white"/>
<path d="M153.449 0H139.445L150.904 3.82935L153.449 0Z" fill="#5BC7D6"/>
<path d="M160.442 6.99861L153.445 0L155.159 5.23563L160.442 6.99861Z" fill="#42C3D3"/>
<path d="M139.445 0L139.474 20.9999L147.823 8.40899L139.445 0Z" fill="#00BCCE"/>
<path d="M156.625 9.66907L160.424 20.989L160.441 7L156.625 9.66907Z" fill="#00B5C9"/>
<path d="M139.469 20.9989L160.423 20.9866L152.079 12.6719L139.469 20.9989Z" fill="#00A2B5"/>
<path d="M156.624 9.66642L160.439 6.99735L155.156 5.23438L156.624 9.66642Z" fill="#71CCDA"/>
<path d="M150.902 3.82812L147.82 8.40777L152.083 12.6717L156.628 9.66645L155.161 5.23441L150.902 3.82812Z" fill="white"/>
<path d="M150.904 3.82935L139.445 0L147.822 8.40899L150.904 3.82935Z" fill="#8ED5E0"/>
<path d="M152.086 12.6771L160.431 20.9918L156.631 9.67188L152.086 12.6771Z" fill="#61C8D7"/>
<path d="M155.165 5.23563L153.451 0L150.906 3.82935L155.165 5.23563Z" fill="#9AD9E3"/>
<path d="M147.817 8.40625L139.469 20.9972L152.079 12.6702L147.817 8.40625Z" fill="#69CAD9"/>
</g>
<defs>
<clipPath id="clip0_4386_8006">
<rect width="160" height="21" fill="white" transform="translate(0.445312)"/>
</clipPath>
</defs>
</svg>
